<svg width="189" height="55" viewBox="0 0 189 55" fill="none" xmlns="http://www.w3.org/2000/svg">
<path d="M25.5482 54.078C39.6581 54.078 51.0964 42.1388 51.0964 27.4111C51.0964 12.6835 39.6581 0.744324 25.5482 0.744324C11.4383 0.744324 0 12.6835 0 27.4111C0 42.1388 11.4383 54.078 25.5482 54.078Z" fill="white"/>
<path d="M71.2808 43.0975H65.7718V26.268H63.0879V20.5387H65.7718V19.4646C65.7718 18.0744 66.0207 16.7685 66.5185 15.5467C67.0296 14.3252 67.7224 13.265 68.5969 12.3661C69.4849 11.4536 70.514 10.7373 71.6845 10.2177C72.8548 9.68416 74.1059 9.4173 75.4378 9.4173H79.5748V15.1465H75.4378C74.8459 15.1465 74.2943 15.2589 73.7832 15.4836C73.2854 15.6942 72.8481 15.9962 72.4714 16.3893C72.1083 16.7685 71.819 17.2248 71.6037 17.7583C71.3884 18.2779 71.2808 18.8468 71.2808 19.4646V20.5387H78.0411V26.268H71.2808V43.0975ZM87.9694 14.4093C87.9694 14.943 87.8685 15.4414 87.6668 15.9048C87.4783 16.3683 87.2161 16.7754 86.8797 17.1266C86.5434 17.4636 86.1465 17.7373 85.689 17.9479C85.2451 18.1446 84.7676 18.2428 84.2565 18.2428C83.7451 18.2428 83.2608 18.1446 82.8034 17.9479C82.3595 17.7373 81.9693 17.4636 81.6331 17.1266C81.3101 16.7754 81.0477 16.3683 80.846 15.9048C80.6577 15.4414 80.5634 14.943 80.5634 14.4093C80.5634 13.8899 80.6577 13.3983 80.846 12.935C81.0477 12.4575 81.3101 12.0503 81.6331 11.7132C81.9693 11.3622 82.3595 11.0885 82.8034 10.8918C83.2608 10.6812 83.7451 10.5759 84.2565 10.5759C84.7676 10.5759 85.2451 10.6812 85.689 10.8918C86.1465 11.0885 86.5434 11.3622 86.8797 11.7132C87.2161 12.0503 87.4783 12.4575 87.6668 12.935C87.8685 13.3983 87.9694 13.8899 87.9694 14.4093ZM87.0209 43.0975H81.4715V20.5387H87.0209V43.0975ZM96.7476 43.0975H91.2386V20.5387H92.5703L94.3865 22.7293C95.2745 21.8868 96.2767 21.2409 97.3933 20.7915C98.5234 20.3281 99.7005 20.0964 100.925 20.0964C102.243 20.0964 103.488 20.3632 104.658 20.8968C105.829 21.4164 106.851 22.1395 107.725 23.0664C108.6 23.9791 109.286 25.0533 109.784 26.289C110.295 27.5107 110.55 28.8166 110.55 30.2068V43.0975H105.041V30.2068C105.041 29.617 104.934 29.0623 104.719 28.5427C104.503 28.0092 104.207 27.5458 103.831 27.1527C103.454 26.7594 103.017 26.4505 102.519 26.2258C102.021 26.0011 101.49 25.8888 100.925 25.8888C100.346 25.8888 99.8014 26.0011 99.2903 26.2258C98.7789 26.4505 98.335 26.7594 97.9584 27.1527C97.5817 27.5458 97.2857 28.0092 97.0704 28.5427C96.8553 29.0623 96.7476 29.617 96.7476 30.2068V43.0975ZM125.039 43.0975C123.708 43.0975 122.456 42.8377 121.286 42.3181C120.116 41.7845 119.087 41.0614 118.199 40.1487C117.324 39.2218 116.631 38.1477 116.12 36.9259C115.622 35.7043 115.373 34.3984 115.373 33.0082V26.3101H112.69V20.5809H115.373V11.5657H120.862V20.5809H129.217V26.3101H120.862V33.0082C120.862 33.6119 120.97 34.1808 121.185 34.7143C121.4 35.2339 121.696 35.6902 122.073 36.0835C122.45 36.4767 122.894 36.7925 123.405 37.0312C123.916 37.2559 124.461 37.3682 125.039 37.3682H129.217V43.0975H125.039ZM138.822 14.4093C138.822 14.943 138.721 15.4414 138.52 15.9048C138.331 16.3683 138.069 16.7754 137.733 17.1266C137.396 17.4636 136.999 17.7373 136.542 17.9479C136.098 18.1446 135.62 18.2428 135.109 18.2428C134.598 18.2428 134.114 18.1446 133.656 17.9479C133.212 17.7373 132.822 17.4636 132.486 17.1266C132.163 16.7754 131.901 16.3683 131.699 15.9048C131.51 15.4414 131.416 14.943 131.416 14.4093C131.416 13.8899 131.51 13.3983 131.699 12.935C131.901 12.4575 132.163 12.0503 132.486 11.7132C132.822 11.3622 133.212 11.0885 133.656 10.8918C134.114 10.6812 134.598 10.5759 135.109 10.5759C135.62 10.5759 136.098 10.6812 136.542 10.8918C136.999 11.0885 137.396 11.3622 137.733 11.7132C138.069 12.0503 138.331 12.4575 138.52 12.935C138.721 13.3983 138.822 13.8899 138.822 14.4093ZM137.874 43.0975H132.324V20.5387H137.874V43.0975ZM163.018 51.6913H157.468V41.581C157.051 41.8338 156.621 42.0794 156.177 42.3181C155.746 42.5569 155.296 42.7746 154.825 42.971C154.367 43.1536 153.896 43.301 153.412 43.4134C152.941 43.5257 152.464 43.582 151.979 43.582C150.459 43.582 149.026 43.2942 147.681 42.7183C146.349 42.1287 145.179 41.3071 144.17 40.2539C143.174 39.2008 142.387 37.9439 141.809 36.4837C141.23 35.0092 140.941 33.3874 140.941 31.618C140.941 29.8347 141.23 28.2129 141.809 26.7525C142.387 25.278 143.174 24.0213 144.17 22.9821C145.179 21.9431 146.349 21.1427 147.681 20.5809C149.026 20.0052 150.459 19.7174 151.979 19.7174C152.679 19.7174 153.365 19.8085 154.038 19.9911C154.724 20.1736 155.39 20.4264 156.035 20.7493C156.681 21.0583 157.293 21.4305 157.872 21.8658C158.464 22.3011 159.022 22.7644 159.547 23.256L161.686 20.5809H163.018V51.6913ZM157.468 31.618C157.468 30.8317 157.32 30.0733 157.024 29.3433C156.742 28.599 156.352 27.946 155.854 27.3843C155.356 26.8086 154.771 26.3523 154.098 26.0152C153.439 25.6641 152.733 25.4886 151.979 25.4886C151.226 25.4886 150.513 25.636 149.84 25.9309C149.181 26.2117 148.603 26.619 148.105 27.1527C147.621 27.6862 147.237 28.3321 146.955 29.0903C146.672 29.8347 146.531 30.6772 146.531 31.618C146.531 32.5868 146.672 33.4576 146.955 34.2298C147.237 34.9882 147.621 35.6271 148.105 36.1467C148.603 36.6663 149.181 37.0665 149.84 37.3473C150.513 37.6141 151.226 37.7475 151.979 37.7475C152.733 37.7475 153.439 37.5788 154.098 37.242C154.771 36.8908 155.356 36.4345 155.854 35.8727C156.352 35.2971 156.742 34.6441 157.024 33.9139C157.32 33.1696 157.468 32.4043 157.468 31.618ZM188.161 51.6913H182.611V41.581C182.194 41.8338 181.764 42.0794 181.321 42.3181C180.891 42.5569 180.44 42.7746 179.968 42.971C179.512 43.1536 179.04 43.301 178.556 43.4134C178.086 43.5257 177.607 43.582 177.124 43.582C175.603 43.582 174.171 43.2942 172.824 42.7183C171.492 42.1287 170.322 41.3071 169.314 40.2539C168.318 39.2008 167.531 37.9439 166.953 36.4837C166.374 35.0092 166.085 33.3874 166.085 31.618C166.085 29.8347 166.374 28.2129 166.953 26.7525C167.531 25.278 168.318 24.0213 169.314 22.9821C170.322 21.9431 171.492 21.1427 172.824 20.5809C174.171 20.0052 175.603 19.7174 177.124 19.7174C177.823 19.7174 178.509 19.8085 179.181 19.9911C179.867 20.1736 180.534 20.4264 181.18 20.7493C181.824 21.0583 182.437 21.4305 183.015 21.8658C183.607 22.3011 184.167 22.7644 184.691 23.256L186.829 20.5809H188.161V51.6913ZM182.611 31.618C182.611 30.8317 182.465 30.0733 182.168 29.3433C181.886 28.599 181.496 27.946 180.998 27.3843C180.5 26.8086 179.916 26.3523 179.241 26.0152C178.584 25.6641 177.877 25.4886 177.124 25.4886C176.369 25.4886 175.657 25.636 174.985 25.9309C174.325 26.2117 173.747 26.619 173.249 27.1527C172.764 27.6862 172.381 28.3321 172.099 29.0903C171.815 29.8347 171.675 30.6772 171.675 31.618C171.675 32.5868 171.815 33.4576 172.099 34.2298C172.381 34.9882 172.764 35.6271 173.249 36.1467C173.747 36.6663 174.325 37.0665 174.985 37.3473C175.657 37.6141 176.369 37.7475 177.124 37.7475C177.877 37.7475 178.584 37.5788 179.241 37.242C179.916 36.8908 180.5 36.4345 180.998 35.8727C181.496 35.2971 181.886 34.6441 182.168 33.9139C182.465 33.1696 182.611 32.4043 182.611 31.618Z" fill="#16C1A2"/>
<path fill-rule="evenodd" clip-rule="evenodd" d="M51.0964 27.4111C51.0964 42.1389 39.6581 54.078 25.5482 54.078C21.3959 54.078 17.475 53.044 14.0089 51.2093C14.6596 49.1966 14.7834 43.7408 14.7834 43.7408V35.7257H11.0517C9.84601 35.7257 8.39634 36.1753 7.82226 36.4C7.82226 36.4 8.89867 35.6508 10.4058 34.9767C11.9128 34.3026 13.4198 34.3026 13.4198 34.3026H29.7823C29.7823 34.3026 34.2316 34.3026 36.0258 30.9318C37.8198 27.5609 36.2411 22.6921 36.2411 22.6921C34.3358 24.8949 31.9351 26.2127 29.7823 26.2876C28.2837 26.3398 22.405 26.3192 17.4449 26.3019C15.2784 26.2945 13.2871 26.2876 11.9128 26.2876C7.39151 26.2876 6.17177 31.531 6.17177 32.7296V41.7932C6.17177 42.5026 6.19187 43.573 6.22737 44.8593C2.34743 40.1828 0 34.0831 0 27.4111C0 12.6834 11.4383 0.744324 25.5482 0.744324C32.653 0.744324 39.0805 3.77148 43.7113 8.65751C43.5464 8.92653 43.3538 9.23378 43.1306 9.58339C41.9823 11.3811 38.8246 11.9054 36.0977 11.9056C35.4632 11.9056 33.9834 11.8926 32.0562 11.8758H32.0559H32.0557C25.7013 11.8201 14.4808 11.7216 12.6308 11.9056C8.82709 12.2836 6.81761 14.4522 6.38705 17.1489C5.95668 19.8456 6.12387 22.717 6.45881 23.7407C6.45881 23.7407 7.3917 21.868 9.04237 20.9691C10.6929 20.0703 13.2766 20.0703 13.2766 20.0703C20.5248 20.1952 36.026 20.0703 38.8246 19.9954C41.6235 19.9205 45.3554 17.1489 45.3554 13.4785C45.3554 12.3603 45.2791 11.2861 45.17 10.3322C48.87 14.9585 51.0964 20.9135 51.0964 27.4111Z" fill="url(#paint0_linear_369_75)"/>
<defs>
<linearGradient id="paint0_linear_369_75" x1="25.5482" y1="0.744324" x2="25.5482" y2="54.078" gradientUnits="userSpaceOnUse">
<stop stop-color="#20B69A"/>
<stop offset="1" stop-color="#13C4A4"/>
</linearGradient>
</defs>
</svg>
